<svg width="19" height="20" viewBox="0 0 19 20" fill="none" xmlns="http://www.w3.org/2000/svg">
<path d="M3.26672 6.18359H2.76672V6.68359V16.9994C2.76672 18.3801 3.88601 19.4994 5.26672 19.4994H13.7334C15.1141 19.4994 16.2334 18.3801 16.2334 16.9994V6.68359V6.18359H15.7334H3.26672Z" fill="white" stroke="#636363"/>
<path d="M18 6.23653H18.5V5.73653V4.8418C18.5 4.01337 17.8284 3.3418 17 3.3418H2C1.17157 3.3418 0.5 4.01337 0.5 4.8418V5.73653V6.23653H1H18Z" fill="white" stroke="#636363"/>
<rect x="8.93335" y="16.1582" width="7.57895" height="1.13333" transform="rotate(-90 8.93335 16.1582)" fill="#BFBFBF"/>
<rect x="5.53333" y="16.1582" width="7.57895" height="1.13333" transform="rotate(-90 5.53333 16.1582)" fill="#BFBFBF"/>
<rect x="12.3334" y="16.1582" width="7.57895" height="1.13333" transform="rotate(-90 12.3334 16.1582)" fill="#BFBFBF"/>
<path d="M11.2 3.39474H11.7V2.89474V2C11.7 1.17157 11.0285 0.5 10.2 0.5H8.80005C7.97162 0.5 7.30005 1.17157 7.30005 2V2.89474V3.39474H7.80005H11.2Z" fill="white" stroke="#636363"/>
</svg>
