<svg width="479" height="124" viewBox="0 0 479 124" fill="none" xmlns="http://www.w3.org/2000/svg">
<path d="M257.89 9.50996L256.66 9.83747C255.202 10.2255 254.473 10.4195 254.473 10.8038C254.473 11.1881 255.202 11.3822 256.66 11.7702L257.89 12.0977C258.825 12.3465 259.292 12.4708 259.643 12.7772C259.994 13.0835 260.18 13.5298 260.553 14.4222L261.126 15.7953C261.519 16.7372 261.715 17.2081 262.048 17.2081C262.382 17.2081 262.578 16.7372 262.971 15.7953L263.544 14.4222C263.917 13.5298 264.103 13.0835 264.454 12.7772C264.805 12.4708 265.272 12.3465 266.207 12.0977L267.437 11.7702C268.895 11.3822 269.624 11.1881 269.624 10.8038C269.624 10.4195 268.895 10.2255 267.437 9.83747L266.207 9.50996C265.272 9.26119 264.805 9.13681 264.454 8.83048C264.103 8.52415 263.917 8.0779 263.544 7.1854L262.971 5.81233C262.578 4.87048 262.382 4.39955 262.048 4.39955C261.715 4.39955 261.519 4.87048 261.126 5.81233L260.553 7.1854C260.18 8.0779 259.994 8.52415 259.643 8.83048C259.292 9.13681 258.825 9.26119 257.89 9.50996Z" fill="#595E70"/>
<path d="M212.794 9.50996L211.564 9.83747C210.106 10.2255 209.377 10.4195 209.377 10.8038C209.377 11.1881 210.106 11.3822 211.564 11.7702L212.794 12.0977C213.729 12.3465 214.196 12.4708 214.547 12.7772C214.898 13.0835 215.084 13.5298 215.457 14.4222L216.03 15.7953C216.423 16.7372 216.62 17.2081 216.953 17.2081C217.286 17.2081 217.482 16.7372 217.876 15.7953L218.449 14.4222C218.821 13.5298 219.008 13.0835 219.358 12.7772C219.709 12.4708 220.177 12.3465 221.111 12.0977L222.342 11.7702C223.799 11.3822 224.528 11.1881 224.528 10.8038C224.528 10.4195 223.799 10.2255 222.342 9.83747L221.111 9.50996C220.177 9.26119 219.709 9.13681 219.358 8.83048C219.008 8.52415 218.821 8.0779 218.449 7.1854L217.876 5.81233C217.482 4.87048 217.286 4.39955 216.953 4.39955C216.62 4.39955 216.423 4.87048 216.03 5.81233L215.457 7.1854C215.084 8.0779 214.898 8.52415 214.547 8.83048C214.196 9.13681 213.729 9.26119 212.794 9.50996Z" fill="#595E70"/>
<path d="M202.805 8.6833L202.76 8.791C202.678 8.98838 202.636 9.08706 202.588 9.17656C202.359 9.59806 201.987 9.92334 201.538 10.0931C201.443 10.1292 201.34 10.1567 201.133 10.2117L201.133 10.2117C200.817 10.2959 200.658 10.338 200.596 10.3764C200.279 10.5717 200.279 11.0329 200.596 11.2282C200.658 11.2666 200.817 11.3087 201.133 11.3929C201.34 11.4479 201.443 11.4754 201.538 11.5115C201.987 11.6813 202.359 12.0065 202.588 12.428C202.636 12.5175 202.678 12.6162 202.76 12.8136L202.76 12.8136L202.805 12.9213C202.936 13.2349 203.001 13.3917 203.074 13.4627C203.268 13.653 203.579 13.653 203.773 13.4627C203.846 13.3917 203.911 13.2349 204.042 12.9213L204.087 12.8136C204.17 12.6162 204.211 12.5175 204.259 12.428C204.488 12.0065 204.861 11.6813 205.309 11.5115C205.404 11.4754 205.508 11.4479 205.714 11.3929L205.714 11.3929C206.031 11.3087 206.189 11.2666 206.251 11.2282C206.569 11.0329 206.569 10.5717 206.251 10.3764C206.189 10.338 206.031 10.2959 205.714 10.2117L205.714 10.2117C205.508 10.1567 205.404 10.1292 205.309 10.0931C204.861 9.92334 204.488 9.59806 204.259 9.17656C204.211 9.08706 204.17 8.98838 204.087 8.791L204.042 8.6833C203.911 8.36969 203.846 8.21288 203.773 8.14187C203.579 7.95159 203.268 7.95159 203.074 8.14187C203.001 8.21288 202.936 8.36969 202.805 8.6833Z" fill="#595E70"/>
<path d="M274.958 8.6833L274.913 8.791C274.831 8.98838 274.79 9.08706 274.741 9.17656C274.512 9.59806 274.14 9.92334 273.691 10.0931C273.596 10.1292 273.493 10.1567 273.286 10.2117L273.286 10.2117C272.97 10.2959 272.812 10.338 272.749 10.3764C272.432 10.5717 272.432 11.0329 272.749 11.2282C272.812 11.2666 272.97 11.3087 273.286 11.3929C273.493 11.4479 273.596 11.4754 273.691 11.5115C274.14 11.6813 274.512 12.0065 274.741 12.428C274.79 12.5175 274.831 12.6162 274.913 12.8136L274.913 12.8136L274.958 12.9213C275.089 13.2349 275.155 13.3917 275.227 13.4627C275.422 13.653 275.732 13.653 275.927 13.4627C275.999 13.3917 276.065 13.2349 276.196 12.9213L276.241 12.8136C276.323 12.6162 276.364 12.5175 276.413 12.428C276.641 12.0065 277.014 11.6813 277.463 11.5115C277.558 11.4754 277.661 11.4479 277.868 11.3929L277.868 11.3929C278.184 11.3087 278.342 11.2666 278.405 11.2282C278.722 11.0329 278.722 10.5717 278.405 10.3764C278.342 10.338 278.184 10.2959 277.868 10.2117L277.868 10.2117C277.661 10.1567 277.558 10.1292 277.463 10.0931C277.014 9.92334 276.641 9.59806 276.413 9.17656C276.364 9.08706 276.323 8.98838 276.241 8.791L276.196 8.6833C276.065 8.36969 275.999 8.21288 275.927 8.14187C275.732 7.95159 275.422 7.95159 275.227 8.14187C275.155 8.21288 275.089 8.36969 274.958 8.6833Z" fill="#595E70"/>
<path d="M234.215 8.60925L229.602 9.83704C228.144 10.2251 227.415 10.4191 227.415 10.8034C227.415 11.1877 228.144 11.3817 229.602 11.7697L234.215 12.9975C235.149 13.2463 235.617 13.3707 235.967 13.677C236.318 13.9834 236.505 14.4296 236.877 15.3221L238.578 19.396C238.971 20.3379 239.167 20.8088 239.5 20.8088C239.834 20.8088 240.03 20.3379 240.423 19.396L242.124 15.3221L242.124 15.3221C242.496 14.4296 242.683 13.9833 243.034 13.677C243.384 13.3707 243.852 13.2463 244.786 12.9975L249.399 11.7697C250.857 11.3817 251.585 11.1877 251.585 10.8034C251.585 10.4191 250.857 10.2251 249.399 9.83704L244.786 8.60925C243.852 8.36048 243.384 8.23609 243.034 7.92976C242.683 7.62343 242.496 7.17719 242.124 6.28471L242.124 6.28469L240.423 2.21077C240.03 1.26892 239.834 0.797992 239.5 0.797992C239.167 0.797992 238.971 1.26892 238.578 2.21077L236.877 6.28469C236.505 7.17718 236.318 7.62343 235.967 7.92976C235.617 8.23609 235.149 8.36048 234.215 8.60925Z" fill="#595E70"/>
<path d="M302.242 113.25L404.405 113.436" stroke="#7E7E7E"/>
<path d="M268.188 113.25L297.377 113.197" stroke="#7E7E7E"/>
<path d="M181.621 113.25L210.81 113.303" stroke="#7E7E7E"/>
<path d="M409.271 113.25L427.108 113.283" stroke="#7E7E7E"/>
<path d="M431.973 113.25L479 113.336" stroke="#7E7E7E"/>
<path d="M51.8936 113.25L69.7315 113.283" stroke="#7E7E7E"/>
<path d="M0 113.25L47.0273 113.333" stroke="#7E7E7E"/>
<path d="M74.5947 113.25L176.757 113.436" stroke="#7E7E7E"/>
<path d="M302.242 10.8555L404.405 11.0417" stroke="#7E7E7E"/>
<path d="M409.271 10.8555L427.108 10.888" stroke="#7E7E7E"/>
<path d="M431.973 10.8555L479 10.9412" stroke="#7E7E7E"/>
<path d="M51.8936 10.8555L69.7315 10.888" stroke="#7E7E7E"/>
<path d="M0 10.8555L47.0273 10.9386" stroke="#7E7E7E"/>
<path d="M74.5947 10.8555L176.757 11.0417" stroke="#7E7E7E"/>
<path d="M234.215 111.002L229.602 112.23C228.144 112.618 227.415 112.812 227.415 113.196C227.415 113.58 228.144 113.774 229.602 114.162L234.215 115.39C235.149 115.639 235.617 115.763 235.967 116.07C236.318 116.376 236.505 116.822 236.877 117.715L238.578 121.789C238.971 122.73 239.167 123.201 239.5 123.201C239.834 123.201 240.03 122.73 240.423 121.789L242.124 117.715L242.124 117.715C242.496 116.822 242.683 116.376 243.034 116.07C243.384 115.763 243.852 115.639 244.786 115.39L249.399 114.162C250.857 113.774 251.585 113.58 251.585 113.196C251.585 112.812 250.857 112.618 249.399 112.23L244.786 111.002C243.852 110.753 243.384 110.629 243.034 110.322C242.683 110.016 242.496 109.57 242.124 108.677L242.124 108.677L240.423 104.603C240.03 103.661 239.834 103.191 239.5 103.191C239.167 103.191 238.971 103.661 238.578 104.603L238.578 104.603L236.877 108.677C236.505 109.57 236.318 110.016 235.967 110.322C235.617 110.629 235.149 110.753 234.215 111.002Z" fill="#595E70"/>
</svg>
