<svg width="68" height="119" viewBox="0 0 68 119" fill="none" xmlns="http://www.w3.org/2000/svg">
<path d="M0 0H68V99C68 110.046 59.0457 119 48 119H20C8.9543 119 0 110.046 0 99V0Z" fill="#FFE17C"/>
<path d="M21.1667 53.166H24.2301C24.9801 53.166 25.3551 53.166 25.6263 53.3778C25.8976 53.5896 25.9885 53.9534 26.1704 54.6809L26.5855 56.3414C26.9398 57.7586 27.117 58.4672 27.6376 58.8881C27.6552 58.9022 27.6729 58.9161 27.6909 58.9296C28.2254 59.3327 28.9559 59.3327 30.4167 59.3327V59.3327" stroke="#343D54" stroke-width="2" stroke-linecap="round"/>
<path d="M42.75 73.209H26.641C25.7344 73.209 25.2812 73.209 25.0052 72.9837C24.8692 72.8728 24.7648 72.7279 24.7025 72.5638C24.5761 72.2307 24.7194 71.8007 25.0061 70.9407V70.9407C25.3228 69.9906 25.4811 69.5155 25.8022 69.1867C25.9636 69.0215 26.1523 68.8854 26.3601 68.7846C26.7736 68.584 27.2744 68.584 28.2759 68.584H36.5833" stroke="#343D54" stroke-width="2" stroke-linecap="round" stroke-linejoin="round"/>
<path d="M39.9723 68.584H29.0276C28.0499 68.584 27.2155 67.8772 27.0548 66.9128L26.0828 61.0806C25.9304 60.1663 26.6355 59.334 27.5624 59.334H44.2153C44.9587 59.334 45.4422 60.1163 45.1097 60.7812L41.7611 67.4784C41.4224 68.156 40.7298 68.584 39.9723 68.584Z" stroke="#343D54" stroke-width="2" stroke-linecap="round"/>
<circle cx="41.2084" cy="77.8327" r="1.54167" fill="#343D54"/>
<circle cx="28.875" cy="77.8327" r="1.54167" fill="#343D54"/>
<circle cx="48.5" cy="56.5" r="7.5" fill="#FF8E75"/>
<path d="M50.6215 59.2665V60H47.089V59.2665H48.439V55.2075C48.439 55.0635 48.4435 54.9165 48.4525 54.7665L47.413 55.644C47.368 55.68 47.3215 55.704 47.2735 55.716C47.2285 55.725 47.185 55.725 47.143 55.716C47.104 55.707 47.068 55.6935 47.035 55.6755C47.005 55.6545 46.981 55.632 46.963 55.608L46.6615 55.185L48.6145 53.5065H49.402V59.2665H50.6215Z" fill="white"/>
</svg>
