<svg width="68" height="119" viewBox="0 0 68 119" fill="none" xmlns="http://www.w3.org/2000/svg">
<path d="M0 0H68V99C68 110.046 59.0457 119 48 119H20C8.9543 119 0 110.046 0 99V0Z" fill="#FFE17C"/>
<path d="M21.1667 53.166H24.2301C24.9801 53.166 25.3551 53.166 25.6263 53.3778C25.8976 53.5896 25.9885 53.9534 26.1704 54.6809L26.5855 56.3414C26.9398 57.7586 27.117 58.4672 27.6376 58.8881C27.6552 58.9022 27.6729 58.9161 27.6909 58.9296C28.2254 59.3327 28.9559 59.3327 30.4167 59.3327V59.3327" stroke="#343D54" stroke-width="2" stroke-linecap="round"/>
<path d="M42.75 73.209H26.641C25.7344 73.209 25.2812 73.209 25.0052 72.9837C24.8692 72.8728 24.7648 72.7279 24.7025 72.5638C24.5761 72.2307 24.7194 71.8007 25.0061 70.9407V70.9407C25.3228 69.9906 25.4811 69.5155 25.8022 69.1867C25.9636 69.0215 26.1523 68.8854 26.3601 68.7846C26.7736 68.584 27.2744 68.584 28.2759 68.584H36.5833" stroke="#343D54" stroke-width="2" stroke-linecap="round" stroke-linejoin="round"/>
<path d="M39.9723 68.584H29.0276C28.0499 68.584 27.2155 67.8772 27.0548 66.9128L26.0828 61.0806C25.9304 60.1663 26.6355 59.334 27.5624 59.334H44.2153C44.9587 59.334 45.4422 60.1163 45.1097 60.7812L41.7611 67.4784C41.4224 68.156 40.7298 68.584 39.9723 68.584Z" stroke="#343D54" stroke-width="2" stroke-linecap="round"/>
<circle cx="41.2084" cy="77.8327" r="1.54167" fill="#343D54"/>
<circle cx="28.875" cy="77.8327" r="1.54167" fill="#343D54"/>
<circle cx="48.5" cy="56.5" r="7.5" fill="#FF8E75"/>
<path d="M50.428 59.0865C50.533 59.0865 50.6155 59.118 50.6755 59.181C50.7355 59.241 50.7655 59.319 50.7655 59.415V60H46.3825V59.6715C46.3825 59.6055 46.396 59.5365 46.423 59.4645C46.45 59.3925 46.4935 59.3265 46.5535 59.2665L48.5695 57.246C48.7405 57.075 48.892 56.9115 49.024 56.7555C49.159 56.5995 49.273 56.4435 49.366 56.2875C49.462 56.1315 49.534 55.974 49.582 55.815C49.633 55.653 49.6585 55.4835 49.6585 55.3065C49.6585 55.1355 49.6315 54.9855 49.5775 54.8565C49.5265 54.7245 49.4545 54.6165 49.3615 54.5325C49.2715 54.4455 49.162 54.381 49.033 54.339C48.907 54.294 48.7675 54.2715 48.6145 54.2715C48.4675 54.2715 48.331 54.2925 48.205 54.3345C48.082 54.3765 47.971 54.435 47.872 54.51C47.776 54.585 47.695 54.675 47.629 54.78C47.566 54.882 47.5195 54.9945 47.4895 55.1175C47.4445 55.2405 47.386 55.323 47.314 55.365C47.245 55.407 47.143 55.416 47.008 55.392L46.4995 55.302C46.5445 54.996 46.6285 54.7275 46.7515 54.4965C46.8775 54.2655 47.035 54.0735 47.224 53.9205C47.413 53.7645 47.629 53.6475 47.872 53.5695C48.118 53.4885 48.3835 53.448 48.6685 53.448C48.9565 53.448 49.2205 53.4915 49.4605 53.5785C49.7035 53.6625 49.912 53.784 50.086 53.943C50.263 54.099 50.401 54.2895 50.5 54.5145C50.599 54.7395 50.6485 54.993 50.6485 55.275C50.6485 55.515 50.6125 55.737 50.5405 55.941C50.4715 56.145 50.377 56.34 50.257 56.526C50.137 56.712 49.996 56.8935 49.834 57.0705C49.675 57.2445 49.507 57.4215 49.33 57.6015L47.764 59.2035C47.893 59.1675 48.022 59.139 48.151 59.118C48.283 59.097 48.4075 59.0865 48.5245 59.0865H50.428Z" fill="white"/>
</svg>
