<svg width="68" height="119" viewBox="0 0 68 119" fill="none" xmlns="http://www.w3.org/2000/svg">
<path d="M0 0H68V99C68 110.046 59.0457 119 48 119H20C8.9543 119 0 110.046 0 99V0Z" fill="#FFE17C"/>
<path d="M21.1666 53.166H24.2301C24.98 53.166 25.355 53.166 25.6263 53.3778C25.8975 53.5896 25.9885 53.9534 26.1704 54.6809L26.5855 56.3414C26.9398 57.7586 27.1169 58.4672 27.6376 58.8881C27.6551 58.9022 27.6728 58.9161 27.6908 58.9296C28.2254 59.3327 28.9558 59.3327 30.4166 59.3327V59.3327" stroke="#343D54" stroke-width="2" stroke-linecap="round"/>
<path d="M42.75 73.209H26.641C25.7344 73.209 25.2812 73.209 25.0052 72.9837C24.8692 72.8728 24.7648 72.7279 24.7025 72.5638C24.5761 72.2307 24.7194 71.8007 25.0061 70.9407V70.9407C25.3228 69.9906 25.4811 69.5155 25.8022 69.1867C25.9636 69.0215 26.1523 68.8854 26.3601 68.7846C26.7736 68.584 27.2744 68.584 28.2759 68.584H36.5833" stroke="#343D54" stroke-width="2" stroke-linecap="round" stroke-linejoin="round"/>
<path d="M39.9722 68.584H29.0275C28.0499 68.584 27.2155 67.8772 27.0548 66.9128L26.0827 61.0806C25.9303 60.1663 26.6354 59.334 27.5623 59.334H44.2153C44.9586 59.334 45.4421 60.1163 45.1097 60.7812L41.7611 67.4784C41.4223 68.156 40.7298 68.584 39.9722 68.584Z" stroke="#343D54" stroke-width="2" stroke-linecap="round"/>
<circle cx="41.2083" cy="77.8327" r="1.54167" fill="#343D54"/>
<circle cx="28.875" cy="77.8327" r="1.54167" fill="#343D54"/>
</svg>
